HIERARCHY
ROOT ui
{
	 OFFSET 0 0 0
	 CHANNELS 3 XPosition YPosition Z Position
	 EndSite
	 {
	 OFFSET 0 -1 0
	 }
}
ROOT li
{
	 OFFSET 0 0 0
	 CHANNELS 3 XPosition YPosition Z Position
	 EndSite
	 {
	 OFFSET 0 -1 0
	 }
}
ROOT ul
{
	 OFFSET 0 0 0
	 CHANNELS 3 XPosition YPosition Z Position
	 EndSite
	 {
	 OFFSET 0 -1 0
	 }
}
ROOT ll
{
	 OFFSET 0 0 0
	 CHANNELS 3 XPosition YPosition Z Position
	 EndSite
	 {
	 OFFSET 0 -1 0
	 }
}
ROOT tt
{
	 OFFSET 0 0 0
	 CHANNELS 3 XPosition YPosition Z Position
	 EndSite
	 {
	 OFFSET 0 -1 0
	 }
}
ROOT tb
{
	 OFFSET 0 0 0
	 CHANNELS 3 XPosition YPosition Z Position
	 EndSite
	 {
	 OFFSET 0 -1 0
	 }
}
ROOT td
{
	 OFFSET 0 0 0
	 CHANNELS 3 XPosition YPosition Z Position
	 EndSite
	 {
	 OFFSET 0 -1 0
	 }
}
ROOT v
{
	 OFFSET 0 0 0
	 CHANNELS 3 XPosition YPosition Z Position
	 EndSite
	 {
	 OFFSET 0 -1 0
	 }
}
ROOT bn
{
	 OFFSET 0 0 0
	 CHANNELS 3 XPosition YPosition Z Position
	 EndSite
	 {
	 OFFSET 0 -1 0
	 }
}
MOTION
Frames: 27
Frame Time: 0.002
-0.03248852920532227	4.28395003080368E-4	0		0.6237882690429688	-2.64538232421875	0		-0.904812744140625	0.32159417724609374	0		-0.09917547607421875	-3.24001513671875	0		1.552182373046875	-0.6390426635742188	0		2.90270751953125	-0.5157392578125	0		4.19394677734375	-0.07272487640380859	0		5.99078173828125	0.3872705078125	0		-0.3360395812988281	5.8883564453125	0		
0.04860142135620117	0.002136298894882202	0		0.64561376953125	-2.65401904296875	0		-0.9087817993164062	0.3173416748046875	0		-0.10233301544189453	-3.244322021484375	0		1.5312220458984376	-0.6382269287109374	0		2.9328671875	-0.5055914611816407	0		4.18300390625	-0.07316566467285156	0		5.98718359375	0.3706497802734375	0		-0.28648406982421876	5.903453125	0		
-0.03235189437866211	-2.5986701250076295E-4	0		0.6455572509765625	-2.6543955078125	0		-0.908689697265625	0.3170429077148437	0		-0.07350318908691406	-3.2520009765625	0		1.5491947021484376	-0.6448584594726563	0		2.939023193359375	-0.4971533508300781	0		4.16717138671875	-0.06553192138671875	0		5.987236328125	0.3695331420898437	0		-0.28708908081054685	5.90513525390625	0		
0.044728065490722654	-0.0015070509910583495	0		0.6455198364257813	-2.65476708984375	0		-0.8994961547851562	0.3246365661621094	0		-0.1374812774658203	-3.2445859375	0		1.5182877197265625	-0.6419069213867188	0		2.9204873046875	-0.4634095458984375	0		4.1743828125	-0.05514949417114258	0		5.9909375	0.38392730712890627	0		-0.3046824951171875	5.90901806640625	0		
-0.02509852409362793	0.005977742195129395	0		0.6515781860351563	-2.64820556640625	0		-0.8993968505859375	0.32433355712890627	0		-0.07259329223632813	-3.2506884765625	0		1.5783782958984376	-0.6400193481445312	0		2.909566650390625	-0.4627406311035156	0		4.1736201171875	-0.042651485443115235	0		5.99099853515625	0.3829072570800781	0		-0.27128359985351563	5.91430029296875	0		
-0.028056785583496092	0.0026745879650115966	0		0.6475143432617188	-2.652520751953125	0		-0.8993085327148438	0.3240255432128906	0		-0.1056053009033203	-3.248634521484375	0		1.5344593505859374	-0.6378934936523437	0		2.937897705078125	-0.440516845703125	0		4.1616962890625	-0.04299658584594727	0		5.98616162109375	0.4028527526855469	0		-0.2568682250976563	5.92480322265625	0		
-0.032043228149414064	-0.00161798095703125	0		0.6365722045898438	-2.646749755859375	0		-0.8262437744140625	0.32284231567382815	0		-0.044747554779052734	-3.258697021484375	0		1.5463466796875	-0.651419677734375	0		2.909019287109375	-0.4345968017578125	0		4.16883837890625	-0.036538955688476565	0		5.99681787109375	0.38436117553710936	0		-0.13849404907226562	5.93606640625	0		
-0.031999843597412106	-0.0019620959758758546	0		0.6007069091796875	-2.634679931640625	0		-0.8991885986328125	0.3233833923339844	0		-0.11174224090576172	-3.256243408203125	0		1.5343538818359375	-0.653653076171875	0		2.90128076171875	-0.4159071960449219	0		4.14995361328125	-0.03074326515197754	0		5.9911259765625	0.38025607299804687	0		-0.27060552978515623	5.91329736328125	0		
0.045026077270507815	-0.00322975492477417	0		0.6474871826171875	-2.653596923828125	0		-0.899153076171875	0.323044189453125	0		-0.06587438201904297	-3.267139892578125	0		1.518306640625	-0.6598319091796875	0		2.92820947265625	-0.42461553955078124	0		4.1451162109375	-0.02008741569519043	0		5.99114794921875	0.37951791381835936	0		-0.24025132751464845	5.93359130859375	0		
-0.014965943336486816	-0.004872526168823242	0		0.6006472778320312	-2.641398681640625	0		-0.889136474609375	0.3215718078613281	0		-0.09275471496582031	-3.25817626953125	0		1.543352783203125	-0.6584959716796875	0		2.891785888671875	-0.378551025390625	0		4.144298828125	-0.0074560861587524415	0		5.99774853515625	0.41152606201171876	0		-0.2563107299804688	5.92342578125	0		
0.05620229721069336	0.005913956165313721	0		0.6317984008789063	-2.63213427734375	0		-0.8210519409179687	0.32539328002929685	0		-0.07569701385498047	-3.25674560546875	0		1.5372890625	-0.6667879638671875	0		2.881745849609375	-0.38479345703125	0		4.136353515625	-0.005721074104309082	0		5.991189453125	0.3782256774902344	0		-0.3064526062011719	5.90965625	0		
-0.03187514877319336	-0.0034119889736175537	0		0.6137595825195312	-2.6402900390625	0		-0.8940137329101563	0.32588134765625	0		-0.07563714599609375	-3.25712158203125	0		1.5342821044921875	-0.6711157836914062	0		2.877070556640625	-0.36108935546875	0		4.1284609375	2.943200059235096E-5	0		5.9821474609375	0.4194394226074219	0		-0.272392333984375	5.914873046875	0		
-0.03183438491821289	-0.0037972919940948485	0		0.6377731323242187	-2.6459521484375	0		-0.8260296020507812	0.32067608642578127	0		-0.07756625366210937	-3.258483642578125	0		1.537200439453125	-0.6825158081054687	0		2.8811630859375	-0.357485107421875	0		4.12764453125	0.011708731651306153	0		5.991244140625	0.37712286376953125	0		-0.272427734375	5.91448486328125	0		
-0.0317861385345459	-0.004192495822906494	0		0.5899903564453125	-2.635765869140625	0		-0.8939347534179688	0.3250744934082031	0		-0.10639892578125	-3.253535400390625	0		1.505298583984375	-0.6795032348632812	0		2.850683349609375	-0.318463134765625	0		4.11183642578125	0.02357643508911133	0		5.99421630859375	0.3938414001464844	0		-0.25736651611328126	5.92390625	0		
0.05234233856201172	4.063119888305664E-4	0		0.64203662109375	-2.642773193359375	0		-0.8847845458984375	0.33254367065429685	0		-0.09233637237548828	-3.260107177734375	0		1.4982703857421875	-0.6887903442382812	0		2.85762255859375	-0.32988653564453124	0		4.1149697265625	0.029227018356323242	0		5.99426171875	0.393372314453125	0		-0.29247866821289065	5.919912109375	0		
-0.020505285263061522	0.005859202861785888	0		0.60836083984375	-2.628767333984375	0		-0.889751953125	0.32816836547851563	0		-0.04215600204467773	-3.26011328125	0		1.559253662109375	-0.6998849487304688	0		2.85915673828125	-0.2932393798828125	0		4.11419921875	0.040931964874267576	0		5.98945068359375	0.4172899169921875	0		-0.2736034851074219	5.91426806640625	0		
0.04951640701293945	-0.003386210918426514	0		0.6314739990234375	-2.636439697265625	0		-0.893687255859375	0.3237710266113281	0		-0.0729027099609375	-3.257167724609375	0		1.511363037109375	-0.70269189453125	0		2.846358154296875	-0.2874224548339844	0		4.1143193359375	0.040632240295410155	0		5.99371533203125	0.3959862365722656	0		-0.2746419372558594	5.91485302734375	0		
-0.024272493362426758	0.0010609649419784546	0		0.5787791748046875	-2.63122119140625	0		-0.889491943359375	0.3272698974609375	0		-0.04370119857788086	-3.2629365234375	0		1.5015802001953125	-0.69995166015625	0		2.84465576171875	-0.27673446655273437	0		4.087619873046875	0.052654830932617185	0		5.9915888671875	0.37488497924804687	0		-0.2746712951660156	5.9144189453125	0		
0.045837970733642576	-0.007191988945007324	0		0.6169583740234375	-2.641077880859375	0		-0.873365478515625	0.3216211242675781	0		-0.09240049743652344	-3.263793701171875	0		1.492661376953125	-0.7122246704101562	0		2.857897216796875	-0.27422088623046875	0		4.079886474609375	0.05845721435546875	0		5.99117578125	0.40738427734375	0		-0.2726996765136719	5.911955078125	0		
-0.016759370803833006	0.007110654830932617	0		0.5963948364257813	-2.63224560546875	0		-0.8640498046875	0.32904833984375	0		-0.024041261672973633	-3.264028076171875	0		1.49292138671875	-0.7126060791015625	0		2.8435869140625	-0.2363800048828125	0		4.07927099609375	0.07118013000488281	0		5.9984755859375	0.4068056335449219	0		-0.27366729736328127	5.912521484375	0		
0.057454269409179685	0.001808596968650818	0		0.6357451171875	-2.63411669921875	0		-0.8746908569335937	0.337705078125	0		-0.08759019470214843	-3.25872119140625	0		1.499143310546875	-0.7190579833984375	0		2.8078173828125	-0.24029129028320312	0		4.06753466796875	0.07103508758544921	0		5.9859521484375	0.4327515869140625	0		-0.2756006164550781	5.91409619140625	0		
-0.01924161911010742	0.003265256881713867	0		0.608147705078125	-2.633207275390625	0		-0.8784627685546875	0.33327734375	0		-0.037180419921875	-3.259746826171875	0		1.5214569091796875	-0.7196966552734375	0		2.817322509765625	-0.2227294921875	0		4.06290087890625	0.07780904388427734	0		5.99229345703125	0.37339425659179687	0		-0.2755415954589844	5.91364453125	0		
-0.026026351928710938	-0.004096653938293457	0		0.608546630859375	-2.633626220703125	0		-0.8781797485351562	0.3328002624511719	0		-0.10068316650390625	-3.25344970703125	0		1.5156888427734374	-0.7280098266601562	0		2.80468603515625	-0.2179118194580078	0		4.059333251953125	0.08957062530517577	0		5.98830908203125	0.39045516967773436	0		-0.27547665405273436	5.91319091796875	0		
-0.022699630737304688	-0.0015772650241851808	0		0.6089415283203125	-2.63404736328125	0		-0.8670053100585937	0.32319482421875	0		-0.023419347763061524	-3.267786865234375	0		1.5058714599609375	-0.7402791748046875	0		2.82933154296875	-0.18852627563476562	0		4.06674853515625	0.10020272064208985	0		5.992158203125	0.40556161499023435	0		-0.2943562927246094	5.91795458984375	0		
-0.01837373924255371	0.0019290159940719605	0		0.5874049682617187	-2.627217529296875	0		-0.8626919555664062	0.3266686096191406	0		-0.08087156677246093	-3.2555673828125	0		1.506179931640625	-0.740667724609375	0		2.789610107421875	-0.1894034729003906	0		4.050256103515625	0.12010704040527344	0		5.992357421875	0.40519061279296875	0		-0.30942962646484373	5.90667041015625	0		
-0.018108463287353514	0.0014804179668426514	0		0.637674072265625	-2.636216552734375	0		-0.8773804931640625	0.3313599853515625	0		-0.019591011047363282	-3.265717529296875	0		1.4873826904296874	-0.7488405151367188	0		2.836143310546875	-0.16727568054199218	0		4.050516845703125	0.11981150054931641	0		5.995498046875	0.42548748779296874	0		-0.309363525390625	5.90821044921875	0		
-0.01785554313659668	0.0010307810306549071	0		0.5840615234375	-2.63302490234375	0		-0.8771397094726563	0.33087887573242186	0		-0.05017055130004883	-3.26181298828125	0		1.494593994140625	-0.7553145751953125	0		2.79047412109375	-0.16109503173828124	0		4.04283447265625	0.12560210418701173	0		5.99272802734375	0.40441400146484374	0		-0.27626068115234376	5.91337255859375	0		
